Coordinates
version=1
nRows=17
nColumns=36
inDegrees=yes

Units are S.I. units (second, meters, Newtons, ...)
If the header above contains a line with 'inDegrees', this indicates whether rotational values are in degrees (yes) or radians (no).

endheader
time	pelvis_tilt	pelvis_list	pelvis_rotation	pelvis_tx	pelvis_ty	pelvis_tz	hip_flexion_r	hip_adduction_r	hip_rotation_r	knee_angle_r	knee_angle_r_beta	ankle_angle_r	subtalar_angle_r	mtp_angle_r	hip_flexion_l	hip_adduction_l	hip_rotation_l	knee_angle_l	knee_angle_l_beta	ankle_angle_l	subtalar_angle_l	mtp_angle_l	lumbar_extension	lumbar_bending	lumbar_rotation	arm_flex_r	arm_add_r	arm_rot_r	elbow_flex_r	pro_sup_r	arm_flex_l	arm_add_l	arm_rot_l	elbow_flex_l	pro_sup_l
      0.56000000	     -1.12316668	     -0.06248532	      0.94033786	      0.36889179	      1.12752588	     -0.19006897	     -5.06038612	      7.74793312	      2.11547503	      3.94556336	      0.06886307	      8.74799777	     -5.71754680	     -7.49999478	     30.93916267	      1.12312808	     -5.32640143	     26.62774812	      0.46474188	      7.23818258	     -0.74952228	     -7.49999478	     -9.78315327	      4.85411254	     -1.53505665	     -6.63595507	     -8.87212743	     -9.52870725	     43.96083040	     90.52376808	     -8.75527264	     -5.52344341	     -6.52090083	     39.04639379	     95.42254572
      0.57000000	     -1.26276557	     -0.05493332	      0.51067387	      0.37690062	      1.12562735	     -0.18979734	     -5.37068804	      7.59165249	      1.89669103	      3.61607399	      0.06311240	     10.62766175	     -5.56114885	     -7.49999526	     31.07072043	      1.08459730	     -5.47653608	     25.02317912	      0.43673686	      7.18393734	     -0.16436839	     -7.49999526	     -9.66844455	      4.58278682	     -1.44106046	     -6.61176147	     -8.85379272	     -9.40236702	     43.74104665	     90.67291999	     -8.65794833	     -5.40943440	     -6.96138512	     39.00176356	     95.95575741
      0.58000000	     -1.34053917	     -0.05102212	      0.14376385	      0.38521762	      1.12395523	     -0.18939505	     -5.76797617	      7.47109567	      1.85053396	      3.33168627	      0.05814890	     12.21193576	     -5.52231893	     -7.49999550	     31.07770546	      1.07020025	     -5.51432674	     23.38190035	      0.40809115	      7.04535656	      0.17120783	     -7.49999550	     -9.65515029	      4.33585342	     -1.41205980	     -6.60169900	     -8.92863475	     -8.97272245	     43.63074186	     90.65031874	     -8.53187522	     -5.39866461	     -7.00740130	     38.98459024	     96.31023273
      0.59000000	     -1.39458225	     -0.04281119	     -0.21480554	      0.39398078	      1.12263376	     -0.18867707	     -6.21472742	      7.37610881	      1.80727197	      3.14225213	      0.05484265	     13.60428974	     -5.23478158	     -7.49999571	     30.99529154	      1.02580385	     -5.63197268	     21.73742469	      0.37938963	      6.94907974	      0.54029723	     -7.49999571	     -9.63818288	      4.05102074	     -1.32663687	     -6.62498188	     -8.92631124	     -8.78762089	     43.38993288	     90.13431843	     -8.36168560	     -5.35668609	     -7.19086075	     38.86300204	     95.99926022
      0.60000000	     -1.42792821	     -0.02228150	     -0.57569534	      0.40300081	      1.12164340	     -0.18753266	     -6.71263757	      7.31754875	      2.10826989	      3.03012874	      0.05288572	     14.58813826	     -5.26416498	     -7.49999572	     30.84479588	      0.94496130	     -5.84255857	     20.12680609	      0.35127903	      6.89524268	      0.91783814	     -7.49999572	     -9.60260114	      3.74398539	     -1.24471984	     -6.62480167	     -8.89217372	     -8.61498205	     43.02845611	     89.66835532	     -8.15634641	     -5.33541757	     -7.29116579	     38.57648515	     95.71744343
      0.61000000	     -1.39111458	      0.01154557	     -0.81539164	      0.41219422	      1.12092595	     -0.18643283	     -7.32506062	      7.26796600	      1.89424376	      2.95836130	      0.05163315	     15.65128372	     -4.45423997	     -7.49999622	     30.58923589	      0.93301181	     -5.91998195	     18.55821850	      0.32390202	      6.74183143	      1.13739940	     -7.49999622	     -9.64752736	      3.38366859	     -1.28178256	     -6.68466175	     -8.78781400	     -8.66364293	     42.76810717	     90.68463576	     -8.02390735	     -5.29318842	     -7.92961577	     38.58497962	     97.33452211
      0.62000000	     -1.21847410	      0.07393992	     -1.16945071	      0.42125240	      1.12048444	     -0.18499481	     -8.09534923	      7.21482894	      2.31857642	      2.93996086	      0.05131200	     16.21265278	     -4.46835555	     -7.49999654	     30.13308863	      0.86345475	     -6.11419881	     17.00928050	      0.29686795	      6.54930862	      1.23874038	     -7.49999654	     -9.85908970	      2.99338544	     -1.20850419	     -6.67834889	     -8.87884304	     -7.83744893	     42.43218332	     90.18897456	     -7.74834262	     -5.52258547	     -7.23127417	     38.33451875	     97.14422567
      0.63000000	     -1.22048241	      0.12990640	     -1.46430157	      0.43033360	      1.11957327	     -0.18371774	     -8.66413965	      7.18254965	      2.40371476	      2.99054817	      0.05219491	     16.81218043	     -4.06393556	     -7.49999661	     29.86767981	      0.78079159	     -6.36720425	     15.57545522	      0.27184298	      6.32545242	      1.40093808	     -7.49999661	     -9.78595937	      2.59252894	     -1.14380461	     -6.76572325	     -8.68587217	     -8.07047316	     41.99928214	     90.32663943	     -7.52501243	     -5.49460571	     -7.67644061	     38.04332510	     97.28989254
      0.64000000	     -1.12014659	      0.18717114	     -1.76796449	      0.43907910	      1.11847855	     -0.18260791	     -9.33515819	      7.14283816	      2.51412738	      3.05154215	      0.05325946	     17.30605135	     -3.74184552	     -7.49999667	     29.48564267	      0.68596963	     -6.59401655	     14.22692098	      0.24830661	      6.06234763	      1.46189739	     -7.49999667	     -9.87014575	      2.17774862	     -1.10390729	     -6.81210935	     -8.54284504	     -8.07519339	     41.59700000	     90.47693806	     -7.25509112	     -5.53440026	     -7.90793617	     37.76840565	     97.46419753
      0.65000000	     -1.22282971	      0.15986139	     -1.99579251	      0.44762302	      1.11663013	     -0.18180076	     -9.75494185	      7.20516994	      2.66578865	      3.15076765	      0.05499127	     17.65890096	     -3.63871333	     -7.49999670	     29.36748492	      0.52279725	     -6.69548998	     13.05162817	      0.22779388	      5.87641736	      1.53456093	     -7.49999670	     -9.75260949	      1.92804133	     -1.15871658	     -6.99051214	     -8.45854126	     -8.03872062	     41.40412334	     90.49306969	     -7.14599572	     -5.57519526	     -7.97774549	     37.66256358	     97.47249728
      0.66000000	     -0.89391984	      0.27586252	     -2.34731184	      0.45573996	      1.11531078	     -0.18075749	    -10.61261995	      7.05577210	      2.61747362	      3.24285352	      0.05659847	     18.10248388	     -3.23158157	     -7.49999681	     28.67804475	      0.44960610	     -6.99085207	     11.78920343	      0.20576042	      5.39872704	      1.32764628	     -7.49999681	    -10.18854488	      1.36693275	     -1.04182352	     -6.84780106	     -8.27035443	     -7.87732337	     40.73370315	     90.74493445	     -6.63208421	     -5.69934382	     -8.18306395	     37.15993394	     97.82135588
      0.67000000	     -0.82679892	      0.26567095	     -2.63466285	      0.46380340	      1.11341017	     -0.17989096	    -11.13021758	      7.04480515	      2.69359134	      3.41238016	      0.05955727	     18.40464713	     -3.08226332	     -7.49999689	     28.31967085	      0.26618499	     -7.12472730	     10.71252006	      0.18696875	      5.02517241	      1.13041540	     -7.49999689	    -10.31977516	      1.00520472	     -0.99477775	     -6.88871983	     -8.16220786	     -7.76587576	     40.33135458	     90.90397477	     -6.30722008	     -5.78966098	     -8.32596764	     36.91669129	     98.06097092
      0.68000000	     -0.86136570	      0.22169606	     -2.90011488	      0.47192793	      1.11149789	     -0.17889782	    -11.48624034	      7.06207393	      2.80536716	      3.64643931	      0.06364237	     18.61903863	     -3.02678698	     -7.49999693	     28.06773233	      0.03416494	     -7.25784886	      9.74466949	      0.17007657	      4.66088704	      0.96224768	     -7.49999693	    -10.34189265	      0.67072235	     -1.00732366	     -6.99812550	     -8.02606361	     -7.68639666	     40.06554303	     90.96906168	     -6.05869937	     -5.90768643	     -8.43402851	     36.76091270	     98.15812258
      0.69000000	     -0.99486803	     -0.00730194	     -3.04820091	      0.48009266	      1.10965811	     -0.17786091	    -11.73859629	      7.29322178	      2.83819841	      3.84854786	      0.06716983	     18.66249043	     -3.00558905	     -7.49999694	     28.07843921	     -0.37653729	     -7.26083966	      9.18789507	      0.16035902	      4.66073383	      0.88900082	     -7.49999694	    -10.33634960	      0.57361366	     -1.12801971	     -7.13662087	     -7.89491586	     -7.64612885	     39.97100932	     90.95957204	     -5.84306411	     -6.05022133	     -8.48758840	     36.77262754	     98.13794609
      0.70000000	     -0.73894924	      0.01476332	     -3.46062603	      0.48876928	      1.10926699	     -0.17628570	    -12.33139996	      7.15422882	      3.13254674	      4.19926226	      0.07329095	     18.73461723	     -2.84380862	     -7.49999700	     27.26645608	     -0.56503333	     -7.20932278	      8.04040238	      0.14033149	      3.96047842	      0.24251878	     -7.49999700	    -10.69327333	      0.05654920	     -0.91131604	     -7.09214152	     -7.77132918	     -7.50233112	     39.27348643	     91.06810607	     -5.36310388	     -6.11545402	     -8.72958192	     36.28468723	     98.30037676
      0.71000000	     -0.65086007	     -0.14959394	     -3.70965480	      0.49789664	      1.10888761	     -0.17476064	    -12.75386270	      7.25044616	      3.32941706	      4.54473696	      0.07932062	     18.60108252	     -2.70699316	     -7.49999707	     26.79493883	     -0.92088832	     -7.04580655	      7.32187225	      0.12779078	      3.63177985	     -0.25323868	     -7.49999707	    -10.88552947	     -0.21264931	     -0.93827371	     -7.15233643	     -7.62826701	     -7.38055847	     38.84461611	     91.19312437	     -5.05423712	     -6.22092300	     -8.95836699	     36.01112340	     98.53018564
      0.72000000	     -0.75853359	     -0.40509473	     -3.87780496	      0.50770070	      1.10846003	     -0.17317203	    -12.95604326	      7.47241771	      3.49302800	      4.93574115	      0.08614493	     18.36323427	     -2.54011648	     -7.49999708	     26.62618761	     -1.39422492	     -6.97051133	      6.94015751	      0.12112860	      3.64016161	     -0.31688405	     -7.49999708	    -10.83245975	     -0.37502806	     -1.08444884	     -7.39682116	     -7.43158288	     -7.33448450	     38.73778694	     91.18140238	     -4.94649418	     -6.41138488	     -9.03045475	     36.00216438	     98.50857488
